<svg xmlns="http://www.w3.org/2000/svg" xmlns:xlink="http://www.w3.org/1999/xlink" viewBox="0 0 315 65" preserveAspectRatio="xMidYMid" style="display: block; shape-rendering: auto; background: transparent;" width="315" height="65"><style type="text/css">
  .ld-text text {
    text-anchor: middle;
    dominant-baseline: middle;
    font-size: 65px;
    opacity: 0;
    user-select: none;
    pointer-events: none;
  }
</style>
<g style="transform-origin:157.5px 32.5px;transform:scale(1)" class="ld-text">
<g transform="translate(157.5,32.5)">
  <g transform="scale(0.8125) translate(0,0)"><g class="path" style="opacity: 1; transform-origin: -152.96px 4.47px; transform: matrix3d(1.3, 0, 0, 0, 0, 1.3, 0, 0, 0, 0, 1.3, 0, 0, 0, 0, 1); animation: 1.72414s linear -1.0431s infinite normal forwards running animate-tu5mfd4hfw; transform-box: view-box;"><path d="M45.44 18.14Q43.76 16.46 43.76 14.06Q43.76 11.66 45.44 9.94Q47.12 8.22 49.24 8.22Q51.36 8.22 52.84 9.30Q54.32 10.38 54.96 12.06L54.96 12.06Q55.04 12.14 55.04 12.22L55.04 12.22L55.04 12.30Q56 14.38 56 18.02Q56 21.66 55.52 24.22Q55.04 26.78 53.76 29.66Q52.48 32.54 50.64 34.82Q48.80 37.10 45.72 38.58Q42.64 40.06 38.88 40.06L38.88 40.06Q32.48 40.06 29.28 35.42L29.28 35.42Q25.44 40.06 18.80 40.06L18.80 40.06Q13.68 40.06 10.44 36.86Q7.20 33.66 7.20 29.50Q7.20 25.34 8.68 19.22Q10.16 13.10 10.32 9.82L10.32 9.82Q9.04 9.90 7.84 10.74Q6.64 11.58 6.08 12.38L6.08 12.38L5.52 13.18L4.32 12.22Q4.56 11.74 5.04 11.10Q5.52 10.46 7.48 9.34Q9.44 8.22 12.40 8.22Q15.36 8.22 17.16 10.14Q18.96 12.06 18.96 15.02Q18.96 17.98 17.36 24.18Q15.76 30.38 15.76 32.90Q15.76 35.42 16.92 36.86Q18.08 38.30 20.24 38.30L20.24 38.30Q24.88 38.30 28.16 33.50L28.16 33.50Q27.28 31.26 27.28 28.30Q27.28 25.34 28.76 19.22Q30.24 13.10 30.40 9.82L30.40 9.82Q29.12 9.90 27.92 10.74Q26.72 11.58 26.16 12.38L26.16 12.38L25.60 13.18L24.40 12.22Q24.64 11.74 25.12 11.10Q25.60 10.46 27.56 9.34Q29.52 8.22 32.48 8.22Q35.44 8.22 37.24 10.14Q39.04 12.06 39.04 15.02Q39.04 17.98 37.44 24.18Q35.84 30.38 35.84 32.90Q35.84 35.42 37 36.86Q38.16 38.30 40.32 38.30L40.32 38.30Q45.68 38.30 49.92 32.50Q54.16 26.70 54.16 19.42L54.16 19.42Q54.16 18.86 54 17.74L54 17.74Q52.32 19.82 49.72 19.82Q47.12 19.82 45.44 18.14" style="fill: rgb(240, 52, 135);" transform="translate(-183.120,-19.670)"></path></g><g class="path" style="opacity: 1; transform-origin: -115.16px 4.47px; transform: matrix3d(1.3, 0, 0, 0, 0, 1.3, 0, 0, 0, 0, 1.3, 0, 0, 0, 0, 1); animation: 1.72414s linear -0.948276s infinite normal forwards running animate-tu5mfd4hfw; transform-box: view-box;"><path d="M74.64 37.18Q72.24 40.06 68.64 40.06Q65.04 40.06 63 38.22Q60.96 36.38 60.96 33.42L60.96 33.42Q60.96 32.38 62.24 24.70L62.24 24.70L64.88 10.38L61.52 10.38L61.68 8.94L65.12 8.94Q71.04 8.94 73.84 8.46L73.84 8.46L74.96 8.22L69.44 38.46Q71.84 38.22 73.44 36.22L73.44 36.22L74.64 37.18" style="fill: rgb(237, 113, 27);" transform="translate(-183.120,-19.670)"></path></g><g class="path" style="opacity: 1; transform-origin: -111.4px -23.25px; transform: matrix3d(1.3, 0, 0, 0, 0, 1.3, 0, 0, 0, 0, 1.3, 0, 0, 0, 0, 1); animation: 1.72414s linear -0.853448s infinite normal forwards running animate-tu5mfd4hfw; transform-box: view-box;"><path d="M67.60 0.54Q65.92-1.14 65.92-3.54Q65.92-5.94 67.60-7.66Q69.28-9.38 71.68-9.38Q74.08-9.38 75.80-7.66Q77.52-5.94 77.52-3.54Q77.52-1.14 75.80 0.54Q74.08 2.22 71.68 2.22Q69.28 2.22 67.60 0.54" style="fill: rgb(133, 232, 56);" transform="translate(-183.120,-19.670)"></path></g><g class="path" style="opacity: 1; transform-origin: -92.48px 2.63px; transform: matrix3d(1.3, 0, 0, 0, 0, 1.3, 0, 0, 0, 0, 1.3, 0, 0, 0, 0, 1); animation: 1.72414s linear -0.758621s infinite normal forwards running animate-tu5mfd4hfw; transform-box: view-box;"><path d="M86.72 37.98L86.72 37.98Q94.64 37.98 94.64 26.30L94.64 26.30Q94.64 23.42 93.80 19.50Q92.96 15.58 92.80 14.62L92.80 14.62Q87.92 19.66 81.84 20.70L81.84 20.70L81.84 18.78Q87.60 17.50 92.64 12.22L92.64 12.22L92.64 11.90Q92.64 9.98 93.20 8.14Q93.76 6.30 94.32 5.42L94.32 5.42L94.88 4.54L96.80 4.54Q96.80 8.06 97.92 10.98Q99.04 13.90 100.40 15.70Q101.76 17.50 102.88 20.42Q104 23.34 104 26.86L104 26.86Q104 32.54 99.72 36.30Q95.44 40.06 89.44 40.06Q83.44 40.06 80.36 37.34Q77.28 34.62 77.28 31.06Q77.28 27.50 79.04 25.94Q80.80 24.38 83.20 24.38Q85.60 24.38 87.16 25.94Q88.72 27.50 88.72 29.94Q88.72 32.38 87.20 34.06Q85.68 35.74 83.28 35.74L83.28 35.74Q82.24 35.74 81.12 35.42L81.12 35.42Q82.88 37.98 86.72 37.98" style="fill: rgb(47, 239, 210);" transform="translate(-183.120,-19.670)"></path></g><g class="path" style="opacity: 1; transform-origin: -57.28px -5.89px; transform: matrix3d(1.3, 0, 0, 0, 0, 1.3, 0, 0, 0, 0, 1.3, 0, 0, 0, 0, 1); animation: 1.72414s linear -0.663793s infinite normal forwards running animate-tu5mfd4hfw; transform-box: view-box;"><path d="M138.64 38.46L138.64 38.46Q140.56 38.46 142.64 36.22L142.64 36.22L143.84 37.18Q143.28 38.30 141.36 39.18Q139.44 40.06 137.12 40.06L137.12 40.06Q129.84 40.06 129.84 33.50L129.84 33.50Q129.84 30.70 131.28 23.50Q132.72 16.30 132.72 14.06L132.72 14.06Q132.72 10.62 129.44 10.62L129.44 10.62Q126.72 10.62 124.20 14.30Q121.68 17.98 120.08 24.30L120.08 24.30L117.44 39.34L107.84 39.34L116.72-10.90Q114.32-10.66 112.72-8.66L112.72-8.66L111.52-9.62Q113.92-12.50 117.56-12.50Q121.20-12.50 123.20-10.66Q125.20-8.82 125.20-5.46L125.20-5.46Q125.20-4.82 125.04-3.38L125.04-3.38L121.68 15.58Q124.96 8.22 131.84 8.22L131.84 8.22Q136.56 8.22 139.20 10.90Q141.84 13.58 141.84 18.30L141.84 18.30Q141.84 20.78 140.32 27.86Q138.80 34.94 138.64 38.46" style="fill: rgb(146, 220, 236);" transform="translate(-183.120,-19.670)"></path></g><g class="path" style="opacity: 1; transform-origin: -27.4px 4.47px; transform: matrix3d(1.3, 0, 0, 0, 0, 1.3, 0, 0, 0, 0, 1.3, 0, 0, 0, 0, 1); animation: 1.72414s linear -0.568966s infinite normal forwards running animate-tu5mfd4hfw; transform-box: view-box;"><path d="M162.40 37.18Q160 40.06 156.40 40.06Q152.80 40.06 150.76 38.22Q148.72 36.38 148.72 33.42L148.72 33.42Q148.72 32.38 150 24.70L150 24.70L152.64 10.38L149.28 10.38L149.44 8.94L152.88 8.94Q158.80 8.94 161.60 8.46L161.60 8.46L162.72 8.22L157.20 38.46Q159.60 38.22 161.20 36.22L161.20 36.22L162.40 37.18" style="fill: rgb(207, 116, 246);" transform="translate(-183.120,-19.670)"></path></g><g class="path" style="opacity: 1; transform-origin: -23.64px -23.25px; transform: matrix3d(1.3, 0, 0, 0, 0, 1.3, 0, 0, 0, 0, 1.3, 0, 0, 0, 0, 1); animation: 1.72414s linear -0.474138s infinite normal forwards running animate-tu5mfd4hfw; transform-box: view-box;"><path d="M155.36 0.54Q153.68-1.14 153.68-3.54Q153.68-5.94 155.36-7.66Q157.04-9.38 159.44-9.38Q161.84-9.38 163.56-7.66Q165.28-5.94 165.28-3.54Q165.28-1.14 163.56 0.54Q161.84 2.22 159.44 2.22Q157.04 2.22 155.36 0.54" style="fill: rgb(240, 52, 135);" transform="translate(-183.120,-19.670)"></path></g><g class="path" style="opacity: 1; transform-origin: 2.04px 4.47px; transform: matrix3d(1.3, 0, 0, 0, 0, 1.3, 0, 0, 0, 0, 1.3, 0, 0, 0, 0, 1); animation: 1.72414s linear -0.37931s infinite normal forwards running animate-tu5mfd4hfw; transform-box: view-box;"><path d="M197.92 38.46L197.92 38.46Q199.84 38.46 201.92 36.22L201.92 36.22L203.12 37.18Q202.56 38.30 200.64 39.18Q198.72 40.06 196.40 40.06L196.40 40.06Q189.12 40.06 189.12 33.50L189.12 33.50Q189.12 30.70 190.56 23.50Q192 16.30 192 14.06L192 14.06Q192 10.62 188.72 10.62L188.72 10.62Q186.08 10.62 183.64 14.06Q181.20 17.50 179.60 23.50L179.60 23.50L176.88 38.46Q179.36 38.22 180.96 36.22L180.96 36.22L182.16 37.18Q179.76 40.06 176.16 40.06Q172.56 40.06 170.52 38.22Q168.48 36.38 168.48 33.42L168.48 33.42Q168.48 32.30 169.76 24.62L169.76 24.62L172.40 9.82Q170 10.06 168.40 12.06L168.40 12.06L167.20 11.10Q169.60 8.22 173.24 8.22Q176.88 8.22 178.88 10.06Q180.88 11.90 180.88 15.26L180.88 15.26L180.88 15.74Q184.16 8.22 191.12 8.22L191.12 8.22Q195.84 8.22 198.48 10.90Q201.12 13.58 201.12 18.30L201.12 18.30Q201.12 20.78 199.60 27.86Q198.08 34.94 197.92 38.46" style="fill: rgb(237, 113, 27);" transform="translate(-183.120,-19.670)"></path></g><g class="path" style="opacity: 1; transform-origin: 39.92px 11.47px; transform: matrix3d(1.3, 0, 0, 0, 0, 1.3, 0, 0, 0, 0, 1.3, 0, 0, 0, 0, 1); animation: 1.72414s linear -0.284483s infinite normal forwards running animate-tu5mfd4hfw; transform-box: view-box;"><path d="M233.20 48.06L233.20 48.06Q236.08 48.06 238.16 45.82L238.16 45.82L239.28 46.78Q237.36 49.50 233.20 49.50L233.20 49.50Q231.44 49.50 229.60 49.10L229.60 49.10Q224.16 54.06 215.68 54.06L215.68 54.06Q210.64 54.06 207.88 52.34Q205.12 50.62 205.12 47.86Q205.12 45.10 206.84 43.46Q208.56 41.82 212.96 41.82Q217.36 41.82 224.56 45.42L224.56 45.42L227.04 32.14Q223.44 38.78 217.76 38.78L217.76 38.78Q206.88 38.78 206.88 28.06L206.88 28.06Q206.88 19.10 211.40 13.66Q215.92 8.22 222.96 8.22L222.96 8.22Q227.04 8.22 229.28 10.70L229.28 10.70Q229.92 11.42 230.56 12.86L230.56 12.86L231.28 8.94Q237.20 8.94 239.92 8.46L239.92 8.46L240.96 8.22L235.68 37.74Q234.48 43.98 230.88 47.82L230.88 47.82Q231.92 48.06 233.20 48.06 zM215.92 30.54Q215.92 34.22 216.64 35.46Q217.36 36.70 219.36 36.70Q221.36 36.70 223.44 34.54Q225.52 32.38 226.44 30.50Q227.36 28.62 228 26.86L228 26.86L229.68 17.66L229.68 17.10Q229.68 9.74 222.96 9.74L222.96 9.74Q220.40 9.74 218.16 16.70Q215.92 23.66 215.92 30.54L215.92 30.54 zM215.36 52.46L215.36 52.46Q221.76 52.46 224 46.94L224 46.94L222.88 46.38Q221.92 45.90 221.72 45.78Q221.52 45.66 220.64 45.26Q219.76 44.86 219.36 44.74Q218.96 44.62 218.12 44.30Q217.28 43.98 216.72 43.86Q216.16 43.74 215.44 43.58L215.44 43.58Q214.24 43.34 211.92 43.34Q209.60 43.34 208.20 44.46Q206.80 45.58 206.80 47.74Q206.80 49.90 209.12 51.18Q211.44 52.46 215.36 52.46" style="fill: rgb(133, 232, 56);" transform="translate(-183.120,-19.670)"></path></g><g class="path" style="opacity: 1; transform-origin: 95.6px 11.47px; transform: matrix3d(1.3, 0, 0, 0, 0, 1.3, 0, 0, 0, 0, 1.3, 0, 0, 0, 0, 1); animation: 1.72414s linear -0.189655s infinite normal forwards running animate-tu5mfd4hfw; transform-box: view-box;"><path d="M266.08 9.82L266.08 9.82Q264.16 9.82 262.08 12.06L262.08 12.06L260.88 11.10Q261.44 9.98 263.36 9.10Q265.28 8.22 267.60 8.22L267.60 8.22Q274.88 8.22 274.88 14.78L274.88 14.78Q274.88 17.58 273.36 23.94Q271.84 30.30 271.84 32.54L271.84 32.54Q271.84 36.38 275.04 36.38L275.04 36.38Q277.68 36.38 280.20 32.78Q282.72 29.18 284.32 23.10L284.32 23.10L286.96 8.94Q292.88 8.94 295.60 8.46L295.60 8.46L296.64 8.22L291.60 36.54Q290.16 44.78 284.92 49.42Q279.68 54.06 271.36 54.06L271.36 54.06Q266.32 54.06 263.56 52.34Q260.80 50.62 260.80 47.86Q260.80 45.10 262.48 43.46Q264.16 41.82 267.24 41.82Q270.32 41.82 272.96 42.82Q275.60 43.82 276.80 43.98L276.80 43.98L276.64 45.42Q275.28 45.26 272.72 44.30Q270.16 43.34 267.64 43.34Q265.12 43.34 263.80 44.46Q262.48 45.58 262.48 47.70Q262.48 49.82 264.80 51.14Q267.12 52.46 270.56 52.46L270.56 52.46Q278.88 52.46 280.80 42.46L280.80 42.46L282.80 31.42Q279.44 38.78 272.64 38.78L272.64 38.78Q268 38.78 265.48 36.14Q262.96 33.50 262.96 28.70L262.96 28.70Q262.96 26.22 264.44 19.78Q265.92 13.34 266.08 9.82" style="fill: rgb(47, 239, 210);" transform="translate(-183.120,-19.670)"></path></g><g class="path" style="opacity: 1; transform-origin: 132.32px 4.47px; transform: matrix3d(1.3, 0, 0, 0, 0, 1.3, 0, 0, 0, 0, 1.3, 0, 0, 0, 0, 1); animation: 1.72414s linear -0.0948276s infinite normal forwards running animate-tu5mfd4hfw; transform-box: view-box;"><path d="M312.32 40.06Q306.16 40.06 302.96 36.98Q299.76 33.90 299.76 29.22Q299.76 24.54 300.60 21.22Q301.44 17.90 303.36 14.82Q305.28 11.74 309.16 9.98Q313.04 8.22 318.84 8.22Q324.64 8.22 327.88 11.30Q331.12 14.38 331.12 19.74L331.12 19.74Q331.12 28.86 326.28 34.46Q321.44 40.06 312.32 40.06L312.32 40.06 zM308.80 31.82L308.80 31.82Q308.80 38.22 312.52 38.22Q316.24 38.22 319.16 31.78Q322.08 25.34 322.08 16.46L322.08 16.46Q322.08 9.74 318.44 9.74Q314.80 9.74 311.80 15.86Q308.80 21.98 308.80 31.82" style="fill: rgb(146, 220, 236);" transform="translate(-183.120,-19.670)"></path></g><g class="path" style="opacity: 1; transform-origin: 169.56px 4.47px; transform: matrix3d(1.3, 0, 0, 0, 0, 1.3, 0, 0, 0, 0, 1.3, 0, 0, 0, 0, 1); animation: 1.72414s linear 0s infinite normal forwards running animate-tu5mfd4hfw; transform-box: view-box;"><path d="M340 9.82L340 9.82Q338.08 9.82 336 12.06L336 12.06L334.80 11.10Q335.36 9.98 337.28 9.10Q339.20 8.22 341.52 8.22L341.52 8.22Q348.80 8.22 348.80 14.78L348.80 14.78Q348.80 17.58 347.36 24.78Q345.92 31.98 345.92 34.22L345.92 34.22Q345.92 37.66 349.20 37.66L349.20 37.66Q351.52 37.66 353.72 34.94Q355.92 32.22 357.52 27.42L357.52 27.42L360.88 8.94Q366.80 8.94 369.52 8.46L369.52 8.46L370.56 8.22L365.20 38.46Q367.60 38.22 369.20 36.22L369.20 36.22L370.40 37.18Q368 40.06 364.40 40.06Q360.80 40.06 358.80 38.30Q356.80 36.54 356.72 33.34L356.72 33.34Q353.36 40.06 346.80 40.06L346.80 40.06Q342.08 40.06 339.44 37.38Q336.80 34.70 336.80 29.98L336.80 29.98Q336.80 27.50 338.32 20.42Q339.84 13.34 340 9.82" style="fill: rgb(207, 116, 246);" transform="translate(-183.120,-19.670)"></path></g></g><text dy="0.35em" fill="#f03487" font-family="Sail" font-size="65">wishing you</text>
</g>
</g><style type="text/css">@keyframes animate-tu5mfd4hfw { 0.00% {transform: translate(0.00px,0.00px) rotate(0.00deg) scale(1.30, 1.30) skew(0deg, 0.00deg) ;opacity: 1.00;}2.00% {transform: translate(0.00px,0.00px) rotate(0.00deg) scale(1.26, 1.26) ;}6.00% {transform: translate(0.00px,0.00px) rotate(0.00deg) scale(1.19, 1.19) ;}10.00% {animation-timing-function: cubic-bezier(0.66,0.69,0.32,0.36);transform: translate(0.00px,0.00px) rotate(0.00deg) scale(1.13, 1.13) ;}16.00% {transform: translate(0.00px,0.00px) rotate(0.00deg) scale(1.07, 1.07) ;}20.00% {transform: translate(0.00px,0.00px) rotate(0.00deg) scale(1.03, 1.03) ;}24.00% {animation-timing-function: cubic-bezier(0.63,0.79,0.29,0.46);transform: translate(0.00px,0.00px) rotate(0.00deg) scale(1.01, 1.01) ;}28.00% {transform: translate(0.00px,0.00px) rotate(0.00deg) scale(1.00, 1.00) ;}30.00% {transform: translate(0.00px,0.00px) rotate(0.00deg) scale(1.09, 1.09) ;}32.00% {animation-timing-function: cubic-bezier(0.66,0.67,0.33,0.34);transform: translate(0.00px,0.00px) rotate(0.00deg) scale(1.08, 1.08) ;}38.00% {transform: translate(0.00px,0.00px) rotate(0.00deg) scale(1.07, 1.07) ;}42.00% {transform: translate(0.00px,0.00px) rotate(0.00deg) scale(1.06, 1.06) ;}46.00% {transform: translate(0.00px,0.00px) rotate(0.00deg) scale(1.05, 1.05) ;}50.00% {transform: translate(0.00px,0.00px) rotate(0.00deg) scale(1.05, 1.05) ;}54.00% {transform: translate(0.00px,0.00px) rotate(0.00deg) scale(1.04, 1.04) ;}58.00% {transform: translate(0.00px,0.00px) rotate(0.00deg) scale(1.03, 1.03) ;}62.00% {transform: translate(0.00px,0.00px) rotate(0.00deg) scale(1.03, 1.03) ;}66.00% {animation-timing-function: cubic-bezier(0.66,0.68,0.33,0.35);transform: translate(0.00px,0.00px) rotate(0.00deg) scale(1.02, 1.02) ;}72.00% {transform: translate(0.00px,0.00px) rotate(0.00deg) scale(1.01, 1.01) ;}76.00% {transform: translate(0.00px,0.00px) rotate(0.00deg) scale(1.01, 1.01) ;}80.00% {transform: translate(0.00px,0.00px) rotate(0.00deg) scale(1.01, 1.01) ;}84.00% {transform: translate(0.00px,0.00px) rotate(0.00deg) scale(1.00, 1.00) ;}88.00% {transform: translate(0.00px,0.00px) rotate(0.00deg) scale(1.00, 1.00) ;}92.00% {transform: translate(0.00px,0.00px) rotate(0.00deg) scale(1.00, 1.00) ;}96.00% {transform: translate(0.00px,0.00px) rotate(0.00deg) scale(1.00, 1.00) ;}100.00% {transform: translate(0.00px,0.00px) rotate(0.00deg) scale(1.00, 1.00) ;} }</style><!-- [ldio] generated by https://loading.io --></svg>