<svg xmlns="http://www.w3.org/2000/svg" xmlns:xlink="http://www.w3.org/1999/xlink" viewBox="0 0 395 155" preserveAspectRatio="xMidYMid" style="display: block; shape-rendering: auto; background: rgba(255, 255, 255, 0);" width="395" height="155"><style type="text/css">
  .ld-text text {
    text-anchor: middle;
    dominant-baseline: middle;
    font-size: 168px;
    opacity: 0;
    user-select: none;
    pointer-events: none;
  }
</style>
<g style="transform-origin:197.5px 77.5px;transform:scale(1)" class="ld-text">
<g transform="translate(197.5,77.5)">
  <g transform="scale(2.1000) translate(-5,0)"><g class="path" style="opacity: 1; transform-origin: -64.36px -0.28px; transform: matrix3d(1, 0, 0, 0, 0, 1, 0, 0, 0, 0, 1, 0, 0, 0, 0, 1); animation: 10s linear -4.95s infinite normal forwards running animate-zx6yxm13m4e; transform-box: view-box;"><path d="M3.76 54.72L3.76 54.72Q3.76 51.60 3.76 48.36Q3.76 45.12 3.76 42L3.76 42Q6.96 38.96 10.16 35.80Q13.36 32.64 16.56 29.60L16.56 29.60Q20.24 26 22.16 23.80Q24.08 21.60 24.84 20.08Q25.60 18.56 25.60 17.28L25.60 17.28Q25.60 14.64 22.56 13.48Q19.52 12.32 14.72 12.80Q9.92 13.28 4.48 15.44L4.48 15.44Q4.48 12.16 4.48 8.76Q4.48 5.36 4.48 2.08L4.48 2.08Q12.48-0.56 19-0.56Q25.52-0.56 30.20 1.56Q34.88 3.68 37.40 7.44Q39.92 11.20 39.92 16.16L39.92 16.16Q39.92 21.12 37.28 25.48Q34.64 29.84 29.20 35.12L29.20 35.12Q27.44 36.80 25.68 38.56Q23.92 40.32 22.16 42L22.16 42Q26.48 42 30.84 42Q35.20 42 39.52 42L39.52 42Q39.52 45.12 39.52 48.36Q39.52 51.60 39.52 54.72L39.52 54.72Q30.64 54.72 21.64 54.72Q12.64 54.72 3.76 54.72" style="fill: rgb(59, 232, 176);" transform="translate(-86.200,-27.360)"></path></g><g class="path" style="opacity: 1; transform-origin: -17.48px 0.16px; transform: matrix3d(1, 0, 0, 0, 0, 1, 0, 0, 0, 0, 1, 0, 0, 0, 0, 1); animation: 10s linear -3.3s infinite normal forwards running animate-zx6yxm13m4e; transform-box: view-box;"><path d="M68.72 55.84L68.72 55.84Q68.72 55.84 68.72 55.84Q68.72 55.84 68.72 55.84L68.72 55.84Q63.44 55.84 59.04 53.72Q54.64 51.60 51.48 47.76Q48.32 43.92 46.60 38.72Q44.88 33.52 44.88 27.44L44.88 27.44Q44.88 21.36 46.60 16.20Q48.32 11.04 51.48 7.24Q54.64 3.44 59.04 1.32Q63.44-0.80 68.72-0.80L68.72-0.80Q74-0.80 78.36 1.32Q82.72 3.44 85.92 7.24Q89.12 11.04 90.84 16.20Q92.56 21.36 92.56 27.44L92.56 27.44Q92.56 33.52 90.84 38.72Q89.12 43.92 85.92 47.76Q82.72 51.60 78.36 53.72Q74 55.84 68.72 55.84 zM68.72 42.64L68.72 42.64Q68.72 42.64 68.72 42.64Q68.72 42.64 68.72 42.64L68.72 42.64Q71.92 42.64 74.12 40.76Q76.32 38.88 77.52 35.44Q78.72 32 78.72 27.44L78.72 27.44Q78.72 22.88 77.52 19.48Q76.32 16.08 74.12 14.24Q71.92 12.40 68.72 12.40L68.72 12.40Q65.60 12.40 63.36 14.24Q61.12 16.08 59.92 19.44Q58.72 22.80 58.72 27.44L58.72 27.44Q58.72 32 59.92 35.44Q61.12 38.88 63.36 40.76Q65.60 42.64 68.72 42.64" style="fill: rgb(106, 103, 206);" transform="translate(-86.200,-27.360)"></path></g><g class="path" style="opacity: 1; transform-origin: 29.4px -0.28px; transform: matrix3d(1, 0, 0, 0, 0, 1, 0, 0, 0, 0, 1, 0, 0, 0, 0, 1); animation: 10s linear -1.65s infinite normal forwards running animate-zx6yxm13m4e; transform-box: view-box;"><path d="M97.52 54.72L97.52 54.72Q97.52 51.60 97.52 48.36Q97.52 45.12 97.52 42L97.52 42Q100.72 38.96 103.92 35.80Q107.12 32.64 110.32 29.60L110.32 29.60Q114 26 115.92 23.80Q117.84 21.60 118.60 20.08Q119.36 18.56 119.36 17.28L119.36 17.28Q119.36 14.64 116.32 13.48Q113.28 12.32 108.48 12.80Q103.68 13.28 98.24 15.44L98.24 15.44Q98.24 12.16 98.24 8.76Q98.24 5.36 98.24 2.08L98.24 2.08Q106.24-0.56 112.76-0.56Q119.28-0.56 123.96 1.56Q128.64 3.68 131.16 7.44Q133.68 11.20 133.68 16.16L133.68 16.16Q133.68 21.12 131.04 25.48Q128.40 29.84 122.96 35.12L122.96 35.12Q121.20 36.80 119.44 38.56Q117.68 40.32 115.92 42L115.92 42Q120.24 42 124.60 42Q128.96 42 133.28 42L133.28 42Q133.28 45.12 133.28 48.36Q133.28 51.60 133.28 54.72L133.28 54.72Q124.40 54.72 115.40 54.72Q106.40 54.72 97.52 54.72" style="fill: rgb(255, 185, 0);" transform="translate(-86.200,-27.360)"></path></g><g class="path" style="opacity: 1; transform-origin: 71.8px 0.4px; transform: matrix3d(1, 0, 0, 0, 0, 1, 0, 0, 0, 0, 1, 0, 0, 0, 0, 1); animation: 10s linear 0s infinite normal forwards running animate-zx6yxm13m4e; transform-box: view-box;"><path d="M140.48 31.92L140.48 31.92Q141.20 24.08 141.92 16.08Q142.64 8.08 143.36 0.32L143.36 0.32Q150.72 0.32 158.32 0.32Q165.92 0.32 173.28 0.32L173.28 0.32Q173.28 3.44 173.28 6.68Q173.28 9.92 173.28 13.04L173.28 13.04Q168.88 13.04 164.32 13.04Q159.76 13.04 155.28 13.04L155.28 13.04Q155.12 14.56 154.88 16.20Q154.64 17.84 154.48 19.44L154.48 19.44Q161.28 19.36 166.12 21.36Q170.96 23.36 173.56 27.28Q176.16 31.20 176.16 37.04L176.16 37.04Q176.16 43.28 173.20 47.32Q170.24 51.36 165.16 53.32Q160.08 55.28 153.56 55.20Q147.04 55.12 139.84 53.04L139.84 53.04Q139.84 49.76 139.84 46.36Q139.84 42.96 139.84 39.68L139.84 39.68Q146.48 41.76 151.56 42.36Q156.64 42.96 159.52 41.76Q162.40 40.56 162.40 37.44L162.40 37.44Q162.40 34.32 159.48 32.80Q156.56 31.28 151.60 31.08Q146.64 30.88 140.48 31.92" style="fill: rgb(252, 99, 107);" transform="translate(-86.200,-27.360)"></path></g></g><text dy="0.35em" fill="#3be8b0" font-family="Tilt Warp" font-size="168">2025</text>
</g>
</g><style type="text/css">@keyframes animate-zx6yxm13m4e { 0.00% {transform: translate(0.00px,0.00px) rotate(0.00deg) scale(1.00, 1.00) skew(0deg, 0.00deg) ;opacity: 1.00;}4.00% {transform: translate(0.38px,2.87px) rotate(2.75deg) ;}6.00% {transform: translate(0.57px,4.30px) rotate(4.13deg) ;}8.00% {animation-timing-function: cubic-bezier(0.69,0.61,0.35,0.28);transform: translate(0.76px,5.74px) rotate(5.51deg) ;}12.00% {transform: translate(1.13px,3.81px) rotate(-1.45deg) ;}14.00% {transform: translate(1.31px,2.62px) rotate(-5.37deg) ;}16.00% {animation-timing-function: cubic-bezier(0.69,0.59,0.36,0.26);transform: translate(1.50px,1.44px) rotate(-9.30deg) ;}20.00% {transform: translate(1.86px,-1.69px) rotate(-0.82deg) ;}22.00% {transform: translate(2.04px,-3.33px) rotate(5.05deg) ;}24.00% {transform: translate(2.22px,-4.97px) rotate(10.92deg) ;}26.00% {transform: translate(2.39px,-5.35px) rotate(10.39deg) ;}30.00% {transform: translate(2.73px,-3.55px) rotate(-3.46deg) ;}32.00% {transform: translate(2.90px,-2.66px) rotate(-10.38deg) ;}34.00% {transform: translate(3.07px,-1.46px) rotate(-12.69deg) ;}36.00% {transform: translate(3.23px,0.34px) rotate(-5.76deg) ;}38.00% {transform: translate(3.38px,2.14px) rotate(1.16deg) ;}40.00% {transform: translate(3.54px,3.93px) rotate(8.09deg) ;}42.00% {transform: translate(3.70px,5.34px) rotate(12.88deg) ;}44.00% {transform: translate(3.84px,4.76px) rotate(7.01deg) ;}46.00% {transform: translate(3.98px,4.17px) rotate(1.13deg) ;}48.00% {animation-timing-function: cubic-bezier(0.33,0.20,0.67,0.40);transform: translate(4.12px,3.59px) rotate(-4.74deg) ;}50.00% {animation-timing-function: cubic-bezier(0.33,0.20,0.67,0.40);transform: translate(NaNpx,NaNpx) rotate(0.00deg) scale(0.00, 0.00) ;}52.00% {transform: translate(4.39px,1.11px) rotate(-6.69deg) scale(1.00, 1.00) ;}54.00% {transform: translate(4.51px,-0.79px) rotate(-2.76deg) ;}56.00% {transform: translate(4.64px,-2.69px) rotate(1.17deg) ;}58.00% {transform: translate(4.76px,-4.59px) rotate(5.10deg) ;}60.00% {transform: translate(4.87px,-4.70px) rotate(4.60deg) ;}62.00% {transform: translate(4.97px,-4.45px) rotate(3.21deg) ;}64.00% {transform: translate(5.08px,-4.20px) rotate(1.83deg) ;}66.00% {animation-timing-function: cubic-bezier(0.67,0.65,0.34,0.31);transform: translate(5.18px,-3.95px) rotate(0.45deg) ;}70.00% {transform: translate(5.35px,-0.63px) rotate(-2.30deg) ;}74.00% {animation-timing-function: cubic-bezier(0.65,0.73,0.31,0.40);transform: translate(5.52px,3.26px) rotate(-5.04deg) ;}78.00% {transform: translate(5.65px,4.37px) rotate(0.15deg) ;}80.00% {transform: translate(5.71px,4.46px) rotate(4.07deg) ;}82.00% {transform: translate(5.77px,4.55px) rotate(7.98deg) ;}84.00% {transform: translate(5.82px,3.97px) rotate(8.64deg) ;}86.00% {transform: translate(5.85px,2.04px) rotate(2.77deg) ;}88.00% {transform: translate(5.89px,0.11px) rotate(-3.09deg) ;}90.00% {transform: translate(5.93px,-1.81px) rotate(-8.96deg) ;}92.00% {transform: translate(5.72px,-3.28px) rotate(-13.30deg) ;}94.00% {transform: translate(4.29px,-2.46px) rotate(-9.97deg) ;}96.00% {transform: translate(2.86px,-1.64px) rotate(-6.65deg) ;}100.00% {transform: translate(NaNpx,NaNpx) rotate(0.00deg) scale(0.00, 0.00) ;} }</style><!-- [ldio] generated by https://loading.io --></svg>