<?xml version="1.0" encoding="utf-8"?>
<svg xmlns="http://www.w3.org/2000/svg" style="margin: auto; background: none; display: block; shape-rendering: auto;" width="341" height="127" preserveAspectRatio="xMidYMid">
<style type="text/css">
  text {
    text-anchor: middle; font-size: 157px; opacity: 0;
  }
</style>
<g style="transform-origin:170.5px 63.5px;transform:scale(1)">
<g transform="translate(170.5,63.5)">
  <g transform="translate(0,0)"><g class="path" style="transform: scale(0.91); transform-origin: -116.495px -9.2689px; animation: 1s linear -0.495s infinite normal forwards running breath-3243ca2d-e386-47c5-96aa-46268ed303c1;"><path d="M12.72 0L12.72 0Q7.22 0 7.22-5.65L7.22-5.65L7.22-5.65Q7.38-8.95 9.03-10.99L9.03-10.99L9.03-10.99Q10.68-13.03 14.44-15.54L14.44-15.54L14.44-15.54Q26.85-23.86 33.68-29.28L33.68-29.28L33.68-29.28Q40.51-34.70 46.00-43.02L46.00-43.02L46.00-43.02Q51.50-51.34 51.50-61.70L51.50-61.70L51.50-61.70Q51.50-69.24 47.49-73.40L47.49-73.40L47.49-73.40Q43.49-77.56 36.27-77.56L36.27-77.56L36.27-77.56Q30.14-77.56 26.14-74.50L26.14-74.50L26.14-74.50Q22.14-71.44 22.14-66.10L22.14-66.10L22.14-66.10Q22.14-63.43 23.39-61.62L23.39-61.62L23.39-61.62Q24.65-59.82 25.98-58.72L25.98-58.72L25.98-58.72Q27.32-57.62 27.32-57.46L27.32-57.46L27.32-57.46Q27.32-56.36 25.20-54.79L25.20-54.79L25.20-54.79Q23.08-53.22 20.10-53.22L20.10-53.22L20.10-53.22Q15.23-53.22 12.32-56.28L12.32-56.28L12.32-56.28Q9.42-59.35 9.42-64.06L9.42-64.06L9.42-64.06Q9.42-70.34 13.66-74.73L13.66-74.73L13.66-74.73Q17.90-79.13 24.41-81.17L24.41-81.17L24.41-81.17Q30.93-83.21 37.68-83.21L37.68-83.21L37.68-83.21Q49.45-83.21 58.01-77.40L58.01-77.40L58.01-77.40Q66.57-71.59 66.57-59.66L66.57-59.66L66.57-59.66Q66.57-51.02 61.86-43.96L61.86-43.96L61.86-43.96Q57.15-36.90 50.63-31.95L50.63-31.95L50.63-31.95Q44.12-27.00 33.60-20.25L33.60-20.25L33.60-20.25Q25.28-15.07 21.20-11.93L21.20-11.93L21.20-11.15L63.27-11.15L63.27-11.15Q67.20-11.15 69.00-10.28L69.00-10.28L69.00-10.28Q70.81-9.42 70.81-5.65L70.81-5.65L70.81-5.65Q70.81 0 65.31 0L65.31 0L12.72 0" fill="#412a1e" stroke="none" stroke-width="none" transform="translate(-155.510009765625,32.33610046386719)" style="fill: rgb(65, 42, 30);"></path></g><g class="path" style="transform: scale(0.91); transform-origin: -32.425px -7.6989px; animation: 1s linear -0.33s infinite normal forwards running breath-3243ca2d-e386-47c5-96aa-46268ed303c1;"><path d="M123.09 3.14L123.09 3.14Q110.84 3.14 102.44-2.83L102.44-2.83L102.44-2.83Q94.04-8.79 89.88-18.68L89.88-18.68L89.88-18.68Q85.72-28.57 85.72-40.19L85.72-40.19L85.72-40.19Q85.72-51.97 89.88-61.70L89.88-61.70L89.88-61.70Q94.04-71.44 102.44-77.32L102.44-77.32L102.44-77.32Q110.84-83.21 123.09-83.21L123.09-83.21L123.09-83.21Q134.71-83.21 143.18-77.24L143.18-77.24L143.18-77.24Q151.66-71.28 156.06-61.39L156.06-61.39L156.06-61.39Q160.45-51.50 160.45-40.19L160.45-40.19L160.45-40.19Q160.45-28.89 156.06-19.00L156.06-19.00L156.06-19.00Q151.66-9.11 143.18-2.98L143.18-2.98L143.18-2.98Q134.71 3.14 123.09 3.14L123.09 3.14zM123.25-2.67L123.25-2.67Q133.76-2.67 139.57-12.40L139.57-12.40L139.57-12.40Q145.38-22.14 145.38-40.19L145.38-40.19L145.38-40.19Q145.38-58.25 139.57-67.82L139.57-67.82L139.57-67.82Q133.76-77.40 123.25-77.40L123.25-77.40L123.25-77.40Q112.41-77.40 106.60-67.90L106.60-67.90L106.60-67.90Q100.79-58.40 100.79-40.19L100.79-40.19L100.79-40.19Q100.79-21.98 106.60-12.32L106.60-12.32L106.60-12.32Q112.41-2.67 123.25-2.67L123.25-2.67" fill="#412a1e" stroke="none" stroke-width="none" transform="translate(-155.510009765625,32.33610046386719)" style="fill: rgb(248, 222, 60);"></path></g><g class="path" style="transform: scale(0.91); transform-origin: 52.435px -9.2689px; animation: 1s linear -0.165s infinite normal forwards running breath-3243ca2d-e386-47c5-96aa-46268ed303c1;"><path d="M181.65 0L181.65 0Q176.15 0 176.15-5.65L176.15-5.65L176.15-5.65Q176.31-8.95 177.96-10.99L177.96-10.99L177.96-10.99Q179.61-13.03 183.38-15.54L183.38-15.54L183.38-15.54Q195.78-23.86 202.61-29.28L202.61-29.28L202.61-29.28Q209.44-34.70 214.93-43.02L214.93-43.02L214.93-43.02Q220.43-51.34 220.43-61.70L220.43-61.70L220.43-61.70Q220.43-69.24 216.42-73.40L216.42-73.40L216.42-73.40Q212.42-77.56 205.20-77.56L205.20-77.56L205.20-77.56Q199.08-77.56 195.07-74.50L195.07-74.50L195.07-74.50Q191.07-71.44 191.07-66.10L191.07-66.10L191.07-66.10Q191.07-63.43 192.33-61.62L192.33-61.62L192.33-61.62Q193.58-59.82 194.92-58.72L194.92-58.72L194.92-58.72Q196.25-57.62 196.25-57.46L196.25-57.46L196.25-57.46Q196.25-56.36 194.13-54.79L194.13-54.79L194.13-54.79Q192.01-53.22 189.03-53.22L189.03-53.22L189.03-53.22Q184.16-53.22 181.26-56.28L181.26-56.28L181.26-56.28Q178.35-59.35 178.35-64.06L178.35-64.06L178.35-64.06Q178.35-70.34 182.59-74.73L182.59-74.73L182.59-74.73Q186.83-79.13 193.35-81.17L193.35-81.17L193.35-81.17Q199.86-83.21 206.61-83.21L206.61-83.21L206.61-83.21Q218.39-83.21 226.94-77.40L226.94-77.40L226.94-77.40Q235.50-71.59 235.50-59.66L235.50-59.66L235.50-59.66Q235.50-51.02 230.79-43.96L230.79-43.96L230.79-43.96Q226.08-36.90 219.56-31.95L219.56-31.95L219.56-31.95Q213.05-27.00 202.53-20.25L202.53-20.25L202.53-20.25Q194.21-15.07 190.13-11.93L190.13-11.93L190.13-11.15L232.20-11.15L232.20-11.15Q236.13-11.15 237.93-10.28L237.93-10.28L237.93-10.28Q239.74-9.42 239.74-5.65L239.74-5.65L239.74-5.65Q239.74 0 234.24 0L234.24 0L181.65 0" fill="#412a1e" stroke="none" stroke-width="none" transform="translate(-155.510009765625,32.33610046386719)" style="fill: rgb(11, 48, 117);"></path></g><g class="path" style="transform: scale(0.91); transform-origin: 127.795px -8.6439px; animation: 1s linear 0s infinite normal forwards running breath-3243ca2d-e386-47c5-96aa-46268ed303c1;"><path d="M297.83 1.88L297.83 1.88Q295.16 1.88 293.12 1.10L293.12 1.10L293.12 1.10Q291.08 0.31 290.92-1.10L290.92-1.10L290.92-25.12L253.40-25.12L253.40-25.12Q250.89-25.12 249.63-26.69L249.63-26.69L249.63-26.69Q248.37-28.26 248.37-30.61L248.37-30.61L248.37-30.61Q248.37-32.66 249.47-34.07L249.47-34.07L293.59-82.27L293.59-82.27Q295.16-83.84 298.46-83.84L298.46-83.84L298.46-83.84Q300.97-83.84 302.70-82.50L302.70-82.50L302.70-82.50Q304.42-81.17 304.58-78.34L304.58-78.34L304.58-32.81L314-32.81L314-32.81Q316.20-32.81 317.14-32.26L317.14-32.26L317.14-32.26Q318.08-31.71 318.24-29.05L318.24-29.05L318.24-29.05Q318.24-27.32 317.53-26.22L317.53-26.22L317.53-26.22Q316.83-25.12 315.26-25.12L315.26-25.12L304.58-25.12L304.58-1.10L304.58-1.10Q304.58 0.31 302.54 1.10L302.54 1.10L302.54 1.10Q300.50 1.88 297.83 1.88L297.83 1.88zM290.92-70.02L257.48-32.81L290.92-32.81L290.92-70.02" fill="#412a1e" stroke="none" stroke-width="none" transform="translate(-155.510009765625,32.33610046386719)" style="fill: rgb(255, 0, 0);"></path></g></g>
</g>
</g>
<style id="breath-3243ca2d-e386-47c5-96aa-46268ed303c1" data-anikit="">@keyframes breath-3243ca2d-e386-47c5-96aa-46268ed303c1
{
  0% {
    animation-timing-function: cubic-bezier(0.9647,0.2413,-0.0705,0.7911);
    transform: scale(0.9099999999999999);
  }
  51% {
    animation-timing-function: cubic-bezier(0.9226,0.2631,-0.0308,0.7628);
    transform: scale(1.02994);
  }
  100% {
    transform: scale(0.9099999999999999);
  }
}</style></svg>