<?xml version="1.0" encoding="utf-8"?>
<svg xmlns="http://www.w3.org/2000/svg" style="margin: auto; background: none; display: block; shape-rendering: auto;" width="248" height="127" preserveAspectRatio="xMidYMid">
<style type="text/css">
  text {
    text-anchor: middle; font-size: 116px; opacity: 0;
  }
</style>
<g style="transform-origin:124px 63.5px;transform:scale(1)">
<g transform="translate(124,63.5)">
  <g transform="translate(0,0)"><g class="path" style="transform: translate(0px, 0px) scale(0.7); transform-origin: -86.065px -6.85035px; animation: 1s linear -0.495s infinite normal forwards running float-94a80403-c605-4b50-a649-2fd368a1c4c0;"><path d="M9.40 0L9.40 0Q5.34 0 5.34-4.18L5.34-4.18L5.34-4.18Q5.45-6.61 6.67-8.12L6.67-8.12L6.67-8.12Q7.89-9.63 10.67-11.48L10.67-11.48L10.67-11.48Q19.84-17.63 24.88-21.63L24.88-21.63L24.88-21.63Q29.93-25.64 33.99-31.78L33.99-31.78L33.99-31.78Q38.05-37.93 38.05-45.59L38.05-45.59L38.05-45.59Q38.05-51.16 35.09-54.23L35.09-54.23L35.09-54.23Q32.13-57.30 26.80-57.30L26.80-57.30L26.80-57.30Q22.27-57.30 19.31-55.04L19.31-55.04L19.31-55.04Q16.36-52.78 16.36-48.84L16.36-48.84L16.36-48.84Q16.36-46.86 17.28-45.53L17.28-45.53L17.28-45.53Q18.21-44.20 19.20-43.38L19.20-43.38L19.20-43.38Q20.18-42.57 20.18-42.46L20.18-42.46L20.18-42.46Q20.18-41.64 18.62-40.48L18.62-40.48L18.62-40.48Q17.05-39.32 14.85-39.32L14.85-39.32L14.85-39.32Q11.25-39.32 9.11-41.59L9.11-41.59L9.11-41.59Q6.96-43.85 6.96-47.33L6.96-47.33L6.96-47.33Q6.96-51.97 10.09-55.22L10.09-55.22L10.09-55.22Q13.22-58.46 18.04-59.97L18.04-59.97L18.04-59.97Q22.85-61.48 27.84-61.48L27.84-61.48L27.84-61.48Q36.54-61.48 42.86-57.19L42.86-57.19L42.86-57.19Q49.18-52.90 49.18-44.08L49.18-44.08L49.18-44.08Q49.18-37.70 45.70-32.48L45.70-32.48L45.70-32.48Q42.22-27.26 37.41-23.61L37.41-23.61L37.41-23.61Q32.60-19.95 24.82-14.96L24.82-14.96L24.82-14.96Q18.68-11.14 15.66-8.82L15.66-8.82L15.66-8.24L46.75-8.24L46.75-8.24Q49.65-8.24 50.98-7.60L50.98-7.60L50.98-7.60Q52.32-6.96 52.32-4.18L52.32-4.18L52.32-4.18Q52.32 0 48.26 0L48.26 0L9.40 0" fill="#e50dac" stroke="none" stroke-width="none" transform="translate(-114.89501953125,23.88965301513672)" style="fill: rgb(229, 13, 172);"></path></g><g class="path" style="transform: translate(0px, 0px) scale(0.7); transform-origin: -23.95px -5.69035px; animation: 1s linear -0.33s infinite normal forwards running float-94a80403-c605-4b50-a649-2fd368a1c4c0;"><path d="M90.94 2.32L90.94 2.32Q81.90 2.32 75.69-2.09L75.69-2.09L75.69-2.09Q69.48-6.50 66.41-13.80L66.41-13.80L66.41-13.80Q63.34-21.11 63.34-29.70L63.34-29.70L63.34-29.70Q63.34-38.40 66.41-45.59L66.41-45.59L66.41-45.59Q69.48-52.78 75.69-57.13L75.69-57.13L75.69-57.13Q81.90-61.48 90.94-61.48L90.94-61.48L90.94-61.48Q99.53-61.48 105.79-57.07L105.79-57.07L105.79-57.07Q112.06-52.66 115.30-45.36L115.30-45.36L115.30-45.36Q118.55-38.05 118.55-29.70L118.55-29.70L118.55-29.70Q118.55-21.34 115.30-14.04L115.30-14.04L115.30-14.04Q112.06-6.73 105.79-2.20L105.79-2.20L105.79-2.20Q99.53 2.32 90.94 2.32L90.94 2.32zM91.06-1.97L91.06-1.97Q98.83-1.97 103.12-9.16L103.12-9.16L103.12-9.16Q107.42-16.36 107.42-29.70L107.42-29.70L107.42-29.70Q107.42-43.04 103.12-50.11L103.12-50.11L103.12-50.11Q98.83-57.19 91.06-57.19L91.06-57.19L91.06-57.19Q83.06-57.19 78.76-50.17L78.76-50.17L78.76-50.17Q74.47-43.15 74.47-29.70L74.47-29.70L74.47-29.70Q74.47-16.24 78.76-9.11L78.76-9.11L78.76-9.11Q83.06-1.97 91.06-1.97L91.06-1.97" fill="#e50dac" stroke="none" stroke-width="none" transform="translate(-114.89501953125,23.88965301513672)" style="fill: rgb(255, 255, 255);"></path></g><g class="path" style="transform: translate(0px, 0px) scale(0.7); transform-origin: 38.745px -6.85035px; animation: 1s linear -0.165s infinite normal forwards running float-94a80403-c605-4b50-a649-2fd368a1c4c0;"><path d="M134.21 0L134.21 0Q130.15 0 130.15-4.18L130.15-4.18L130.15-4.18Q130.27-6.61 131.49-8.12L131.49-8.12L131.49-8.12Q132.70-9.63 135.49-11.48L135.49-11.48L135.49-11.48Q144.65-17.63 149.70-21.63L149.70-21.63L149.70-21.63Q154.74-25.64 158.80-31.78L158.80-31.78L158.80-31.78Q162.86-37.93 162.86-45.59L162.86-45.59L162.86-45.59Q162.86-51.16 159.91-54.23L159.91-54.23L159.91-54.23Q156.95-57.30 151.61-57.30L151.61-57.30L151.61-57.30Q147.09-57.30 144.13-55.04L144.13-55.04L144.13-55.04Q141.17-52.78 141.17-48.84L141.17-48.84L141.17-48.84Q141.17-46.86 142.10-45.53L142.10-45.53L142.10-45.53Q143.03-44.20 144.01-43.38L144.01-43.38L144.01-43.38Q145-42.57 145-42.46L145-42.46L145-42.46Q145-41.64 143.43-40.48L143.43-40.48L143.43-40.48Q141.87-39.32 139.66-39.32L139.66-39.32L139.66-39.32Q136.07-39.32 133.92-41.59L133.92-41.59L133.92-41.59Q131.78-43.85 131.78-47.33L131.78-47.33L131.78-47.33Q131.78-51.97 134.91-55.22L134.91-55.22L134.91-55.22Q138.04-58.46 142.85-59.97L142.85-59.97L142.85-59.97Q147.67-61.48 152.66-61.48L152.66-61.48L152.66-61.48Q161.36-61.48 167.68-57.19L167.68-57.19L167.68-57.19Q174-52.90 174-44.08L174-44.08L174-44.08Q174-37.70 170.52-32.48L170.52-32.48L170.52-32.48Q167.04-27.26 162.23-23.61L162.23-23.61L162.23-23.61Q157.41-19.95 149.64-14.96L149.64-14.96L149.64-14.96Q143.49-11.14 140.48-8.82L140.48-8.82L140.48-8.24L171.56-8.24L171.56-8.24Q174.46-8.24 175.80-7.60L175.80-7.60L175.80-7.60Q177.13-6.96 177.13-4.18L177.13-4.18L177.13-4.18Q177.13 0 173.07 0L173.07 0L134.21 0" fill="#e50dac" stroke="none" stroke-width="none" transform="translate(-114.89501953125,23.88965301513672)" style="fill: rgb(34, 255, 48);"></path></g><g class="path" style="transform: translate(0px, 0px) scale(0.7); transform-origin: 94.425px -6.38535px; animation: 1s linear 0s infinite normal forwards running float-94a80403-c605-4b50-a649-2fd368a1c4c0;"><path d="M220.05 1.39L220.05 1.39Q218.08 1.39 216.57 0.81L216.57 0.81L216.57 0.81Q215.06 0.23 214.95-0.81L214.95-0.81L214.95-18.56L187.22-18.56L187.22-18.56Q185.37-18.56 184.44-19.72L184.44-19.72L184.44-19.72Q183.51-20.88 183.51-22.62L183.51-22.62L183.51-22.62Q183.51-24.13 184.32-25.17L184.32-25.17L216.92-60.78L216.92-60.78Q218.08-61.94 220.52-61.94L220.52-61.94L220.52-61.94Q222.37-61.94 223.65-60.96L223.65-60.96L223.65-60.96Q224.92-59.97 225.04-57.88L225.04-57.88L225.04-24.24L232-24.24L232-24.24Q233.62-24.24 234.32-23.84L234.32-23.84L234.32-23.84Q235.02-23.43 235.13-21.46L235.13-21.46L235.13-21.46Q235.13-20.18 234.61-19.37L234.61-19.37L234.61-19.37Q234.09-18.56 232.93-18.56L232.93-18.56L225.04-18.56L225.04-0.81L225.04-0.81Q225.04 0.23 223.53 0.81L223.53 0.81L223.53 0.81Q222.02 1.39 220.05 1.39L220.05 1.39zM214.95-51.74L190.24-24.24L214.95-24.24L214.95-51.74" fill="#e50dac" stroke="none" stroke-width="none" transform="translate(-114.89501953125,23.88965301513672)" style="fill: rgb(255, 203, 28);"></path></g></g>
</g>
</g>
<style id="float-94a80403-c605-4b50-a649-2fd368a1c4c0" data-anikit="">@keyframes float-94a80403-c605-4b50-a649-2fd368a1c4c0 {
  0% {
    animation-timing-function: cubic-bezier(0,0.4,0.6,1);
    transform: translate(0,0) scale(0.7000000000000001);
    box-shadow: 0 0 0 rgba(0,0,0,.3);
  }
  50% {
    animation-timing-function: cubic-bezier(0.4,0,1,0.6);
    transform: translate(0,-15px) scale(1);
    box-shadow: 0 23px 5px -15px rgba(0,0,0,.2)
  }
  100% {
    transform: translate(0,0) scale(0.7000000000000001);
    box-shadow: 0 0 0 rgba(0,0,0,.3)
  }
} </style></svg>